<svg width="164" height="112" viewBox="0 0 164 112" fill="none" xmlns="http://www.w3.org/2000/svg">
<path d="M15.278 110.548C15.8069 100.51 16.862 71.901 37.6295 67.416C46.2709 65.5498 58.9957 66.457 65.5078 70.5757C79.4926 79.4204 66.732 100.601 49.378 88.0626C39.6456 81.0309 44.129 67.6611 47.4785 58.2101C52.4158 44.2786 65.4068 35.7223 81.1811 27.4592C89.192 23.2627 131.165 9.55187 130.219 11.5923" stroke="#DAB7D8" stroke-width="2" stroke-linecap="round"/>
<path d="M144.982 5.14128C143.912 7.22437 135.04 23.0411 136.454 21.1846C138.306 18.7546 139.892 16.1378 142.12 13.8556C144.755 11.1554 146.492 8.09155 149.484 5.58898C152.109 3.39297 132.361 3.63866 128.909 4.26239" stroke="#DAB7D8" stroke-width="2" stroke-linecap="round"/>
</svg>
