<svg width="95" height="79" viewBox="0 0 95 79" fill="none" xmlns="http://www.w3.org/2000/svg">
<path d="M80.0745 77.6987C80.5279 70.6993 82.0701 50.7542 70.9254 47.4556C66.288 46.083 59.1878 46.609 55.2827 49.4248C46.8964 55.4715 52.3755 70.3376 62.8983 61.7451C68.7997 56.9262 67.315 47.5722 66.1659 40.9583C64.472 31.209 57.9277 25.1381 49.8234 19.2484C45.7076 16.2572 23.5279 6.35261 23.8992 7.78239" stroke="#DAB7D8" stroke-width="2" stroke-linecap="round"/>
<path d="M16.2189 3.16396C16.6557 4.62448 20.3841 15.7204 19.7404 14.4149C18.8979 12.7061 18.2156 10.8694 17.1538 9.26037C15.8976 7.35677 15.1654 5.20725 13.6978 3.43837C12.41 1.88618 23.3064 2.22218 25.1679 2.68562" stroke="#DAB7D8" stroke-width="2" stroke-linecap="round"/>
</svg>
