<svg width="109" height="86" viewBox="0 0 109 86" fill="none" xmlns="http://www.w3.org/2000/svg">
<path d="M18.8956 84.1616C18.0561 77.7066 15.3823 59.3566 27.7626 54.3063C32.914 52.2049 40.925 51.4407 45.4501 53.3792C55.1677 57.5423 49.7047 72.3915 37.4642 66.2291C30.5994 62.7732 31.829 53.7768 32.8101 47.3983C34.2563 37.996 41.3315 31.1707 50.1699 24.2386C54.6585 20.7181 79.1396 7.54882 78.7893 8.94943" stroke="#DAB7D8" stroke-width="2" stroke-linecap="round"/>
<path d="M87.2099 3.27932C86.7874 4.72022 83.1162 15.7396 83.7787 14.4068C84.646 12.6624 85.3269 10.8268 86.4454 9.13678C87.7688 7.13731 88.4911 5.00087 90.0586 3.0898C91.434 1.41285 79.1936 3.65307 77.1217 4.4149" stroke="#DAB7D8" stroke-width="2" stroke-linecap="round"/>
</svg>
