<svg width="23" height="24" viewBox="0 0 23 24" fill="none" xmlns="http://www.w3.org/2000/svg">
<path d="M7.8267 3.80906L10.2061 10.8804C8.35065 10.0215 4.4152 8.23047 3.5172 7.93718C2.39469 7.57058 0.0361062 8.15708 0.156526 10.6384C0.252862 12.6234 1.82424 13.4885 2.70168 13.4893L9.85597 13.2235L4.9397 19.0184C4.31254 19.8649 4.36741 22.3206 6.4759 23.0486C8.58436 23.7767 9.72886 22.0068 10.0375 21.0309L11.9356 14.4319C12.939 16.2229 15.0357 19.9751 15.3948 20.6553C15.8435 21.5056 18.4008 22.908 19.7792 20.8585C20.8819 19.2189 20.0228 17.6117 19.4553 17.0131L13.5311 12.7517L20.6598 11.184C21.8427 10.9187 22.9894 9.31317 22.0352 7.34746C21.081 5.38176 19.0729 5.65656 18.2429 6.24544L12.517 10.5838L13.1446 3.1264C13.1427 0.68664 10.9152 0.310556 10.0811 0.427084C7.73248 0.870447 7.54141 2.90941 7.8267 3.80906Z" fill="#9B3B92"/>
</svg>
