<svg width="139" height="89" viewBox="0 0 139 89" fill="none" xmlns="http://www.w3.org/2000/svg">
<path d="M137.745 3.01661C135.478 12.9236 129.414 41.2504 110.426 41.5592C102.525 41.6876 91.5473 38.2306 86.5859 32.816C75.9312 21.1884 90.9091 2.61954 103.85 18.6074C111.107 27.5737 104.78 40.0111 100.149 48.767C93.3231 61.6737 80.4119 67.6033 65.1166 72.6823C57.3489 75.2617 18.1369 80.5203 19.3319 78.6747" stroke="#DAB7D8" stroke-width="2" stroke-linecap="round"/>
<path d="M5.24783 82.1487C6.55918 80.2854 17.1687 66.2872 15.5969 67.8555C13.5396 69.9082 11.6808 72.2004 9.3201 74.0302C6.52718 76.195 4.45627 78.903 1.38728 80.7993C-1.30576 82.4634 16.0283 86.179 19.1626 86.2491" stroke="#DAB7D8" stroke-width="2" stroke-linecap="round"/>
</svg>
