<svg width="146" height="99" viewBox="0 0 146 99" fill="none" xmlns="http://www.w3.org/2000/svg">
<path d="M13.2782 97.7273C13.7509 88.8012 14.694 63.3608 33.2577 59.3726C40.9821 57.7131 52.3565 58.5198 58.1776 62.1822C70.6784 70.0473 59.2719 88.8819 43.7595 77.7323C35.0598 71.4794 39.0675 59.5905 42.0615 51.1863C46.4749 38.7979 58.0873 31.1894 72.1876 23.8414C79.3484 20.1098 116.868 7.91759 116.022 9.73203" stroke="#DAB7D8" stroke-width="2" stroke-linecap="round"/>
<path d="M129.218 3.99564C128.262 5.848 120.331 19.9128 121.595 18.262C123.25 16.1011 124.668 13.7742 126.659 11.7447C129.015 9.34362 130.568 6.61913 133.242 4.39375C135.589 2.44097 117.936 2.65946 114.85 3.2141" stroke="#DAB7D8" stroke-width="2" stroke-linecap="round"/>
</svg>
