<svg width="157" height="157" viewBox="0 0 157 157" fill="none" xmlns="http://www.w3.org/2000/svg">
<path d="M155.72 96.3077C147.18 101.816 123.058 117.858 109.251 104.819C103.505 99.3942 98.0617 89.2538 98.2912 81.9135C98.7842 66.1503 122.472 63.3177 120.571 83.7984C119.504 95.2844 106.29 99.7685 96.8611 102.802C82.9623 107.274 69.5798 102.503 55.0847 95.4577C47.7234 91.8798 15.9833 68.2621 18.1275 67.7754" stroke="#DAB7D8" stroke-width="2" stroke-linecap="round"/>
<path d="M5.62018 60.4272C7.85998 60.0092 25.2293 57.3979 23.0091 57.4229C20.1031 57.4556 17.1718 57.7984 14.2043 57.4596C10.6934 57.0589 7.32009 57.5512 3.79908 56.7655C0.70939 56.076 10.5225 70.8402 12.717 73.079" stroke="#DAB7D8" stroke-width="2" stroke-linecap="round"/>
</svg>
