<svg width="160" height="167" viewBox="0 0 160 167" fill="none" xmlns="http://www.w3.org/2000/svg">
<path d="M0.999901 108.011C11.2258 113.103 40.2065 127.991 52.2322 113.288C57.2361 107.17 60.9507 96.1475 59.1989 88.4935C55.4369 72.0566 29.6305 70.9412 35.861 92.1989C39.3551 104.121 54.3477 107.778 65.0114 110.214C80.7303 113.806 94.0012 107.777 107.99 99.284C115.094 94.9712 144.044 67.8144 141.661 67.4728" stroke="#DAB7D8" stroke-width="2" stroke-linecap="round"/>
<path d="M153.47 58.8182C151 58.5558 131.967 57.1795 134.336 57.0327C137.438 56.8405 140.63 56.9704 143.72 56.3853C147.376 55.693 151.07 55.9447 154.658 54.8493C157.806 53.888 150.388 70.0834 148.511 72.5943" stroke="#DAB7D8" stroke-width="2" stroke-linecap="round"/>
</svg>
