<svg width="155" height="128" viewBox="0 0 155 128" fill="none" xmlns="http://www.w3.org/2000/svg">
<path d="M130.864 126.981C131.605 115.542 134.125 82.9462 115.911 77.5553C108.333 75.3122 96.729 76.1718 90.3469 80.7735C76.6414 90.6555 85.5958 114.951 102.793 100.908C112.437 93.033 110.011 77.7459 108.133 66.9369C105.365 51.0039 94.6697 41.0825 81.4249 31.457C74.6986 26.5687 38.451 10.3818 39.0578 12.7185" stroke="#DAB7D8" stroke-width="2" stroke-linecap="round"/>
<path d="M26.5065 5.17077C27.2203 7.55767 33.3135 25.6914 32.2615 23.5578C30.8846 20.7652 29.7696 17.7635 28.0343 15.134C25.9813 12.023 24.7847 8.51007 22.3863 5.61924C20.2817 3.08254 38.0894 3.63165 41.1315 4.38904" stroke="#DAB7D8" stroke-width="2" stroke-linecap="round"/>
</svg>
