<svg width="163" height="140" viewBox="0 0 163 140" fill="none" xmlns="http://www.w3.org/2000/svg">
<path d="M0.999801 49.878C7.05617 59.564 23.982 87.4034 41.9191 81.1542C49.3827 78.5539 58.3107 71.0984 60.8177 63.6575C66.2016 47.6782 44.7837 33.239 38.9846 54.6185C35.7323 66.6084 46.6024 77.5627 54.4201 85.2134C65.9439 96.4911 80.4092 98.2871 96.7739 98.3585C105.085 98.3948 143.959 90.3738 142.106 88.8369" stroke="#DAB7D8" stroke-width="2" stroke-linecap="round"/>
<path d="M156.698 87.6313C154.729 86.1161 139.222 74.9951 141.319 76.1083C144.063 77.5654 146.716 79.3444 149.657 80.4609C153.136 81.7817 156.153 83.9267 159.785 84.8682C162.971 85.6944 148.182 95.6244 145.27 96.7839" stroke="#DAB7D8" stroke-width="2" stroke-linecap="round"/>
</svg>
