<svg width="20" height="21" viewBox="0 0 20 21" fill="none" xmlns="http://www.w3.org/2000/svg">
<path d="M14.3358 13.9618C13.0078 15.4274 11.5781 16.8053 10.1476 18.1768C9.52932 17.4658 8.88003 16.7701 8.22915 16.0728C8.45353 15.9201 8.62228 15.7813 8.66599 15.7028C10.5736 12.2705 12.4963 8.83726 14.716 5.60486C14.5549 6.0916 14.3377 6.55954 14.2166 6.87687C13.7779 8.03322 13.2481 9.1519 12.7098 10.2625C11.6335 12.4827 10.5264 14.6895 9.94177 17.1068C9.8517 17.4787 10.7076 17.1202 10.7792 17.0893C11.248 16.8868 11.7699 16.5845 12.0801 16.1629C13.5906 14.1083 15.1968 12.1364 16.8932 10.2437C16.2614 11.6071 15.3499 12.8423 14.3358 13.9618ZM2.44196 3.35671C2.4915 3.15502 2.58182 2.95871 2.65706 2.76509C2.6915 2.77316 2.72593 2.78391 2.76037 2.79198C3.00674 2.99636 3.45337 3.0824 3.7355 3.27871C3.98239 3.45351 4.21472 3.65789 4.43089 3.87033C4.7207 4.15539 4.98932 4.46465 5.24416 4.79004C5.10773 4.87341 5.00866 4.94063 4.98402 4.95945C4.08757 5.6452 3.25337 6.3955 2.47852 7.20763C2.46898 7.16729 2.45759 7.12964 2.44859 7.08662C2.17414 5.86035 2.13838 4.58298 2.44196 3.35671ZM9.08323 10.6955C9.54284 10.5207 10.1503 10.0797 10.483 9.75697C9.96696 10.5987 9.46363 11.4485 8.96852 12.3055C9.00667 11.769 9.04508 11.2333 9.08323 10.6955ZM5.64125 12.8557C6.06351 12.3448 6.48552 11.8336 6.90778 11.3221C6.83467 12.3461 6.76155 13.3699 6.6887 14.3934C6.28339 13.9379 5.88762 13.4758 5.5096 13.0031C5.55543 12.9555 5.5994 12.9066 5.64125 12.8557ZM7.10593 9.38587C6.76552 9.79732 6.42512 10.2088 6.08497 10.6229C6.22511 9.83496 6.36552 9.04702 6.50619 8.25909C6.57559 7.86647 6.64791 7.47924 6.70937 7.092C7.04342 7.71051 7.35601 8.34516 7.66304 8.96905C7.37853 9.15729 7.15547 9.32671 7.10593 9.38587ZM2.83137 8.41238C2.87402 8.36397 2.91508 8.31825 2.9527 8.26715C3.48146 7.57334 4.05207 6.92796 4.66454 6.32558C4.69898 7.46042 4.43116 8.59255 4.23195 9.71125C4.16174 10.1039 4.09128 10.4992 4.02108 10.8945C3.54716 10.1119 3.14105 9.28905 2.83137 8.41238ZM12.4505 5.45966C13.0521 4.19305 13.6327 2.78661 14.4961 1.67329C15.0434 0.968721 15.8749 1.6679 16.4811 2.44239C15.8789 2.51768 14.9252 3.31906 14.7167 3.58529C13.3088 5.38167 12.0311 7.2668 10.8261 9.20301C11.3302 7.93909 11.8674 6.68862 12.4505 5.45966ZM17.7471 7.16997C17.7195 7.46578 17.675 7.75621 17.6186 8.04396C16.0728 9.61444 14.5933 11.2468 13.1792 12.938C13.7472 11.5614 14.4164 10.2222 15.0649 8.8776C15.6002 7.76697 16.121 6.6429 16.5417 5.48117C16.7256 4.9756 17.1073 4.16347 17.1412 3.46428C17.1539 3.48848 17.1656 3.51269 17.1762 3.53689C17.7041 4.66635 17.8626 5.93294 17.7471 7.16997ZM19.7969 3.48311C19.4986 2.21112 18.6999 0.543816 17.3658 0.110855C16.0204 -0.327482 14.3827 0.619106 13.3819 1.46351C12.2115 2.45313 11.5622 3.88379 10.8825 5.23376C10.4928 6.00824 10.123 6.7908 9.76668 7.57873C9.27899 6.65365 8.78731 5.72857 8.26491 4.82232C7.58436 3.64445 6.76791 2.48272 5.59198 1.76471C4.34797 1.00636 3.09177 1.28872 1.923 2.05513C0.779123 2.80542 0.262023 3.88111 0.0829445 5.23108C-0.739067 11.4216 4.73315 15.6466 8.33935 19.9199C8.31709 19.942 8.29432 19.9638 8.2718 19.9856C7.91126 20.3379 8.11445 20.4672 8.51393 20.411C8.57777 20.4018 8.64346 20.3868 8.70969 20.3677C8.85565 20.5476 8.99898 20.7281 9.13647 20.9088C9.48747 21.3692 11.5848 19.9541 11.3318 19.622C11.1365 19.3654 10.9347 19.1121 10.728 18.8615C13.0786 16.609 15.5804 14.395 17.5378 11.7911C19.3031 9.44233 20.4963 6.46272 19.7969 3.48311Z" fill="#DAB7D8"/>
</svg>
