<svg width="155" height="160" viewBox="0 0 155 160" fill="none" xmlns="http://www.w3.org/2000/svg">
<path d="M53.7268 24.4069L70.1268 73.7234C57.3381 67.7336 30.2131 55.2424 24.0236 53.197C16.2867 50.6402 0.030276 54.7306 0.860267 72.0355C1.52426 85.8794 12.355 91.9126 18.4027 91.9185L67.7135 90.0645L33.8281 130.479C29.5055 136.383 29.8837 153.509 44.4164 158.586C58.9489 163.664 66.8373 151.321 68.9646 144.515L82.047 98.492C88.9635 110.983 103.415 137.151 105.889 141.895C108.982 147.825 126.609 157.606 136.109 143.312C143.709 131.877 137.788 120.669 133.877 116.494L93.0444 86.7742L142.179 75.841C150.332 73.9905 158.235 62.7933 151.658 49.0842C145.082 35.3751 131.241 37.2916 125.52 41.3985L86.0546 71.6545L90.3799 19.6459C90.3669 2.63068 75.0143 0.00782246 69.2655 0.820502C53.0774 3.91258 51.7604 18.1326 53.7268 24.4069Z" fill="#BC7AB7"/>
</svg>
