<svg width="229" height="234" viewBox="0 0 229 234" fill="none" xmlns="http://www.w3.org/2000/svg">
<path d="M79.1347 35.1449L103.477 107.487C84.4948 98.7003 44.2342 80.377 35.0473 77.3767C23.5637 73.6262 -0.565198 79.6262 0.66673 105.011C1.65227 125.318 17.7279 134.168 26.7043 134.177L99.8947 131.457L49.5998 190.74C43.1839 199.401 43.7452 224.523 65.3156 231.971C86.8858 239.419 98.5943 221.313 101.752 211.329L121.169 143.819C131.435 162.142 152.885 200.528 156.558 207.487C161.149 216.185 187.311 230.533 201.412 209.566C212.693 192.792 203.904 176.35 198.099 170.226L137.493 126.631L210.421 110.593C222.522 107.878 234.253 91.4534 224.491 71.3437C214.73 51.234 194.187 54.0452 185.695 60.0696L127.118 104.452L133.538 28.1611C133.518 3.20164 110.731 -0.645795 102.198 0.546315C78.1708 5.08204 76.2161 25.9411 79.1347 35.1449Z" fill="#BC7AB7"/>
</svg>
