<svg width="53" height="52" viewBox="0 0 53 52" fill="none" xmlns="http://www.w3.org/2000/svg">
<path d="M26.25 0C22.8028 0 19.3894 0.678976 16.2046 1.99816C13.0198 3.31735 10.126 5.25091 7.68845 7.68845C2.76562 12.6113 0 19.2881 0 26.25C0 37.8525 7.53375 47.6963 17.955 51.1875C19.2675 51.3975 19.6875 50.5838 19.6875 49.875V45.4387C12.4163 47.0137 10.8675 41.9212 10.8675 41.9212C9.66 38.8762 7.95375 38.0625 7.95375 38.0625C5.565 36.435 8.1375 36.4875 8.1375 36.4875C10.7625 36.6712 12.1538 39.1912 12.1538 39.1912C14.4375 43.1813 18.2962 42 19.7925 41.37C20.0287 39.6637 20.7113 38.5088 21.4463 37.8525C15.6188 37.1963 9.5025 34.9388 9.5025 24.9375C9.5025 22.0238 10.5 19.6875 12.2063 17.8237C11.9438 17.1675 11.025 14.4375 12.4688 10.8938C12.4688 10.8938 14.6737 10.185 19.6875 13.5712C21.7612 12.9938 24.0187 12.705 26.25 12.705C28.4813 12.705 30.7388 12.9938 32.8125 13.5712C37.8262 10.185 40.0312 10.8938 40.0312 10.8938C41.475 14.4375 40.5563 17.1675 40.2938 17.8237C42 19.6875 42.9975 22.0238 42.9975 24.9375C42.9975 34.965 36.855 37.17 31.0013 37.8262C31.9463 38.64 32.8125 40.2412 32.8125 42.6825V49.875C32.8125 50.5838 33.2325 51.4238 34.5713 51.1875C44.9925 47.67 52.5 37.8525 52.5 26.25C52.5 22.8028 51.821 19.3894 50.5018 16.2046C49.1827 13.0198 47.2491 10.126 44.8116 7.68845C42.374 5.25091 39.4802 3.31735 36.2954 1.99816C33.1106 0.678976 29.6972 0 26.25 0Z" fill="#BC7AB7"/>
</svg>
