<svg width="54" height="53" viewBox="0 0 54 53" fill="none" xmlns="http://www.w3.org/2000/svg">
<rect x="0.5" width="53" height="53" rx="26.5" fill="#BC7AB7"/>
<path d="M41.4514 10.2837H13.3389C12.6611 10.2837 12.011 10.5529 11.5317 11.0322C11.0525 11.5115 10.7832 12.1616 10.7832 12.8394V40.9519C10.7832 41.6297 11.0525 42.2797 11.5317 42.759C12.011 43.2383 12.6611 43.5076 13.3389 43.5076H41.4514C42.1292 43.5076 42.7793 43.2383 43.2585 42.759C43.7378 42.2797 44.0071 41.6297 44.0071 40.9519V12.8394C44.0071 12.1616 43.7378 11.5115 43.2585 11.0322C42.7793 10.5529 42.1292 10.2837 41.4514 10.2837ZM41.4514 40.9519H13.3389V12.8394H41.4514V40.9519ZM22.2838 24.3399V34.5627C22.2838 34.9016 22.1491 35.2266 21.9095 35.4663C21.6699 35.7059 21.3448 35.8405 21.0059 35.8405C20.667 35.8405 20.342 35.7059 20.1024 35.4663C19.8627 35.2266 19.7281 34.9016 19.7281 34.5627V24.3399C19.7281 24.001 19.8627 23.676 20.1024 23.4364C20.342 23.1967 20.667 23.0621 21.0059 23.0621C21.3448 23.0621 21.6699 23.1967 21.9095 23.4364C22.1491 23.676 22.2838 24.001 22.2838 24.3399ZM36.34 28.8124V34.5627C36.34 34.9016 36.2054 35.2266 35.9658 35.4663C35.7261 35.7059 35.4011 35.8405 35.0622 35.8405C34.7233 35.8405 34.3983 35.7059 34.1586 35.4663C33.919 35.2266 33.7844 34.9016 33.7844 34.5627V28.8124C33.7844 27.9651 33.4478 27.1526 32.8487 26.5535C32.2496 25.9544 31.437 25.6178 30.5897 25.6178C29.7425 25.6178 28.9299 25.9544 28.3308 26.5535C27.7317 27.1526 27.3951 27.9651 27.3951 28.8124V34.5627C27.3951 34.9016 27.2605 35.2266 27.0209 35.4663C26.7812 35.7059 26.4562 35.8405 26.1173 35.8405C25.7784 35.8405 25.4534 35.7059 25.2137 35.4663C24.9741 35.2266 24.8395 34.9016 24.8395 34.5627V24.3399C24.841 24.0269 24.9575 23.7254 25.1666 23.4926C25.3758 23.2597 25.6631 23.1117 25.9741 23.0766C26.2852 23.0416 26.5983 23.1219 26.854 23.3023C27.1098 23.4828 27.2904 23.7508 27.3616 24.0556C28.226 23.4692 29.2339 23.1293 30.2769 23.0725C31.3199 23.0157 32.3587 23.244 33.2818 23.7331C34.2048 24.2221 34.9772 24.9533 35.516 25.8482C36.0548 26.7431 36.3397 27.7678 36.34 28.8124ZM22.9227 19.8675C22.9227 20.2466 22.8103 20.6172 22.5997 20.9324C22.389 21.2476 22.0897 21.4933 21.7394 21.6384C21.3892 21.7834 21.0038 21.8214 20.632 21.7474C20.2602 21.6735 19.9186 21.4909 19.6506 21.2229C19.3825 20.9548 19.2 20.6133 19.126 20.2414C19.052 19.8696 19.09 19.4842 19.2351 19.134C19.3802 18.7837 19.6258 18.4844 19.941 18.2738C20.2562 18.0632 20.6268 17.9507 21.0059 17.9507C21.5143 17.9507 22.0018 18.1527 22.3613 18.5121C22.7208 18.8716 22.9227 19.3591 22.9227 19.8675Z" fill="#343434"/>
</svg>
