<svg width="54" height="53" viewBox="0 0 54 53" fill="none" xmlns="http://www.w3.org/2000/svg">
<rect x="0.5" width="53" height="53" rx="26.5" fill="#BC7AB7"/>
<path d="M42.7542 14H11.3102C10.9627 14 10.6294 14.138 10.3837 14.3837C10.138 14.6294 10 14.9627 10 15.3102V37.583C10 38.278 10.2761 38.9445 10.7675 39.4359C11.2589 39.9273 11.9254 40.2034 12.6203 40.2034H41.444C42.139 40.2034 42.8055 39.9273 43.2969 39.4359C43.7883 38.9445 44.0644 38.278 44.0644 37.583V15.3102C44.0644 14.9627 43.9263 14.6294 43.6806 14.3837C43.4349 14.138 43.1017 14 42.7542 14ZM27.0322 27.9451L14.6789 16.6203H39.3854L27.0322 27.9451ZM22.2353 27.1017L12.6203 35.9142V18.2892L22.2353 27.1017ZM24.1744 28.8786L26.1396 30.6883C26.3813 30.9102 26.6975 31.0333 27.0256 31.0333C27.3537 31.0333 27.6699 30.9102 27.9116 30.6883L29.8769 28.8786L39.3756 37.583H14.6789L24.1744 28.8786ZM31.829 27.1017L41.444 18.2875V35.9158L31.829 27.1017Z" fill="#343434"/>
</svg>
