<svg width="53" height="10" viewBox="0 0 53 10" fill="none" xmlns="http://www.w3.org/2000/svg">
<path d="M52 3.17736C41.4525 2.58468 30.9958 1.47957 20.429 1.23363C14.3551 1.09226 -3.80912 0.678431 2.2032 1.47659C12.0855 2.78851 22.299 2.74636 32.249 3.62859C36.1042 3.97042 39.9284 4.42861 43.7641 4.91285C45.2401 5.0992 46.393 5.4141 44.031 5.29465C33.4891 4.76153 23.002 3.57675 12.46 3.00382C11.335 2.94268 8.00191 2.91288 9.08552 3.19472C13.0575 4.2278 17.3188 4.63479 21.3822 5.20788C26.2754 5.89799 31.2477 6.32898 36.1001 7.2384C37.8431 7.56507 40.1777 7.667 41.8004 8.33175C44.6721 9.5081 35.5119 8.78461 32.3634 8.73091C27.1235 8.64154 21.8896 8.36619 16.6542 8.17556" stroke="#343434" stroke-linecap="round"/>
</svg>
