<svg width="69" height="14" viewBox="0 0 69 14" fill="none" xmlns="http://www.w3.org/2000/svg">
<path d="M68 4.26604C54.1435 3.37702 40.4062 1.71935 26.5244 1.35044C18.5449 1.13839 -5.31787 0.517647 2.58067 1.71489C15.5633 3.68277 28.9811 3.61954 42.0527 4.94289C47.1173 5.45563 52.1413 6.14291 57.1803 6.86927C59.1194 7.1488 60.6339 7.62115 57.5309 7.44198C43.6818 6.64229 29.9046 4.86513 16.0552 4.00573C14.5773 3.91402 10.1986 3.86932 11.6222 4.29208C16.8403 5.84169 22.4384 6.45219 27.7766 7.31182C34.2049 8.34698 40.7372 8.99347 47.1119 10.3576C49.4018 10.8476 52.4687 11.0005 54.6006 11.9976C58.3732 13.7622 46.3392 12.6769 42.203 12.5964C35.3191 12.4623 28.4432 12.0493 21.5653 11.7633" stroke="#343434" stroke-linecap="round"/>
</svg>
